<?xml version="1.0" standalone="no"?>
<!DOCTYPE svg PUBLIC "-//W3C//DTD SVG 20010904//EN"
 "http://www.w3.org/TR/2001/REC-SVG-20010904/DTD/svg10.dtd">
<svg version="1.0" xmlns="http://www.w3.org/2000/svg"
 width="16.000000pt" height="16.000000pt" viewBox="0 0 16.000000 16.000000"
 preserveAspectRatio="xMidYMid meet">
<metadata>
Created by potrace 1.11, written by Peter Selinger 2001-2013
</metadata>
<g transform="translate(0.000000,16.000000) scale(0.010667,-0.010667)"
fill="#000000" stroke="none">
<path d="M100 1108 l0 -33 72 2 c40 1 83 2 96 2 18 1 22 7 22 31 l0 30 -95 0
-95 0 0 -32z"/>
<path d="M550 1110 c0 -33 -3 -31 90 -31 104 0 100 -2 100 31 l0 30 -95 0 -95
0 0 -30z"/>
<path d="M1002 1110 c-3 -33 -9 -31 98 -31 100 0 96 -2 94 29 l-1 27 -94 3
-95 3 -2 -31z"/>
<path d="M1402 979 c-25 -7 -53 -35 -115 -114 -78 -99 -84 -105 -119 -105
l-38 0 0 80 c0 44 -3 80 -7 81 -5 0 -18 2 -30 5 -25 4 -24 9 -26 -96 l-1 -65
-80 -5 c-79 -5 -81 -5 -83 -32 -2 -31 1 -32 113 -28 l52 1 0 -73 c1 -119 -37
-151 -68 -58 -7 22 -17 41 -22 41 -40 6 -87 -17 -94 -47 -7 -26 19 -121 47
-176 18 -35 23 -38 62 -38 23 0 47 4 53 8 6 4 43 54 82 112 128 189 141 206
280 383 51 64 90 122 87 127 -8 12 -48 12 -93 -1z m-253 -301 c-17 -34 -19
-34 -19 -5 0 18 5 27 15 27 13 0 14 -4 4 -22z"/>
<path d="M168 922 c0 -4 -2 -41 -2 -82 l-2 -75 -82 -3 -82 -3 0 -29 c0 -30 0
-30 63 -31 110 -2 100 6 101 -83 l1 -79 28 -1 c31 -2 29 -5 31 89 l1 70 83 3
82 3 0 29 0 29 -82 3 -83 3 0 72 c0 39 -3 75 -8 79 -10 11 -47 16 -49 6z"/>
<path d="M619 916 c-1 -6 -3 -36 -4 -66 -1 -30 -3 -63 -4 -72 -1 -16 -12 -18
-81 -18 l-80 0 0 -30 0 -30 68 -1 c37 -1 73 -1 80 0 13 2 14 0 16 -84 1 -70 9
-86 39 -81 20 3 22 9 23 82 l1 79 79 1 79 1 3 32 3 31 -80 0 c-92 0 -84 -9
-83 103 1 31 -2 57 -6 58 -44 5 -52 4 -53 -5z"/>
</g>
</svg>
